<svg width="21" height="20" viewBox="0 0 21 20" fill="none" xmlns="http://www.w3.org/2000/svg">
<path d="M19.4305 0H1.03047C0.587969 0 0.230469 0.3575 0.230469 0.8V19.2C0.230469 19.6425 0.587969 20 1.03047 20H19.4305C19.873 20 20.2305 19.6425 20.2305 19.2V0.8C20.2305 0.3575 19.873 0 19.4305 0ZM11.143 12.77C10.0455 14.315 7.84047 14.765 6.12047 14.1025C4.39547 13.445 3.17047 11.6225 3.31797 9.765C3.35547 7.4925 5.44797 5.5 7.72047 5.5775C8.81047 5.5275 9.83547 6 10.6705 6.6675C10.313 7.0725 9.94547 7.4625 9.55047 7.825C8.54797 7.1325 7.12047 6.935 6.11797 7.735C4.68297 8.7275 4.61797 11.07 5.99797 12.1375C7.34047 13.355 9.87797 12.75 10.2505 10.885C9.41047 10.8725 8.56547 10.885 7.72547 10.8575C7.72297 10.355 7.72047 9.855 7.72297 9.3525C9.12797 9.3475 10.5355 9.345 11.943 9.3575C12.0255 10.54 11.868 11.795 11.143 12.77V12.77ZM17.2055 10.6125C16.7855 10.6175 16.3655 10.62 15.9455 10.6225C15.9405 11.0425 15.938 11.4625 15.938 11.8825H14.6805C14.6755 11.4625 14.6755 11.045 14.673 10.625C14.253 10.62 13.833 10.6175 13.413 10.6125V9.36C13.833 9.355 14.253 9.3525 14.673 9.3525C14.6755 8.9325 14.6805 8.5125 14.683 8.0925H15.938L15.9455 9.3525C16.3655 9.3575 16.7855 9.3575 17.2055 9.36V10.6125Z" fill="#E27F44"/>
</svg>
