<svg width="21" height="20" viewBox="0 0 21 20" fill="none" xmlns="http://www.w3.org/2000/svg">
<path d="M10.2278 6.66525C8.39157 6.66525 6.89309 8.16376 6.89309 10C6.89309 11.8362 8.39157 13.3348 10.2278 13.3348C12.064 13.3348 13.5625 11.8362 13.5625 10C13.5625 8.16376 12.064 6.66525 10.2278 6.66525ZM20.2294 10C20.2294 8.61907 20.2419 7.25064 20.1643 5.87221C20.0868 4.27113 19.7215 2.85017 18.5507 1.67938C17.3775 0.506085 15.959 0.14334 14.358 0.065788C12.9771 -0.0117644 11.6087 0.000744113 10.2303 0.000744113C8.84937 0.000744113 7.48098 -0.0117644 6.10257 0.065788C4.50152 0.14334 3.08058 0.508587 1.90982 1.67938C0.736545 2.85267 0.373806 4.27113 0.296256 5.87221C0.218705 7.25314 0.231213 8.62157 0.231213 10C0.231213 11.3784 0.218705 12.7494 0.296256 14.1278C0.373806 15.7289 0.739047 17.1498 1.90982 18.3206C3.08309 19.4939 4.50152 19.8567 6.10257 19.9342C7.48348 20.0118 8.85188 19.9993 10.2303 19.9993C11.6112 19.9993 12.9796 20.0118 14.358 19.9342C15.959 19.8567 17.38 19.4914 18.5507 18.3206C19.724 17.1473 20.0868 15.7289 20.1643 14.1278C20.2444 12.7494 20.2294 11.3809 20.2294 10V10ZM10.2278 15.131C7.38841 15.131 5.09691 12.8394 5.09691 10C5.09691 7.16058 7.38841 4.86903 10.2278 4.86903C13.0671 4.86903 15.3587 7.16058 15.3587 10C15.3587 12.8394 13.0671 15.131 10.2278 15.131ZM15.5688 5.8572C14.9059 5.8572 14.3705 5.32184 14.3705 4.65889C14.3705 3.99594 14.9059 3.46058 15.5688 3.46058C16.2317 3.46058 16.7671 3.99594 16.7671 4.65889C16.7673 4.81631 16.7364 4.97222 16.6763 5.1177C16.6161 5.26317 16.5279 5.39535 16.4165 5.50666C16.3052 5.61798 16.1731 5.70624 16.0276 5.76639C15.8821 5.82654 15.7262 5.8574 15.5688 5.8572V5.8572Z" fill="#E27F44"/>
</svg>
